<svg width="1200" height="150" viewBox="0 0 1200 150" fill="none" xmlns="http://www.w3.org/2000/svg" font-family="'Segoe UI', Roboto, Helvetica, Arial, sans-serif">
  <defs>
    <linearGradient id="cardbg" x1="0" y1="0" x2="0" y2="1">
      <stop offset="0" stop-color="#101a2e"/><stop offset="1" stop-color="#0c1526"/>
    </linearGradient>
    <linearGradient id="acc" x1="0" y1="0" x2="1" y2="0">
      <stop offset="0" stop-color="#22d3ee"/><stop offset="1" stop-color="#2dd4bf"/>
    </linearGradient>
  </defs>
  <g transform="translate(0,10)">
    <rect x="0" y="0" width="282" height="130" rx="14" fill="url(#cardbg)" stroke="#22314d"/>
    <rect x="22" y="22" width="40" height="4" rx="2" fill="url(#acc)"/>
    <text x="22" y="70" fill="#ffffff" font-size="22" font-weight="800">B.Sc. Data Science</text>
    <text x="22" y="98" fill="#8aa0bd" font-size="13">Universität Augsburg · Sem 2</text>
  </g>
  <g transform="translate(306,10)">
    <rect x="0" y="0" width="282" height="130" rx="14" fill="url(#cardbg)" stroke="#22314d"/>
    <rect x="22" y="22" width="40" height="4" rx="2" fill="url(#acc)"/>
    <text x="22" y="70" fill="#ffffff" font-size="22" font-weight="800">4 Languages</text>
    <text x="22" y="98" fill="#8aa0bd" font-size="13">AR · FR · German B2 · EN</text>
  </g>
  <g transform="translate(612,10)">
    <rect x="0" y="0" width="282" height="130" rx="14" fill="url(#cardbg)" stroke="#22314d"/>
    <rect x="22" y="22" width="40" height="4" rx="2" fill="url(#acc)"/>
    <text x="22" y="70" fill="#ffffff" font-size="22" font-weight="800">Core Stack</text>
    <text x="22" y="98" fill="#8aa0bd" font-size="13">Python · pandas · scikit-learn</text>
  </g>
  <g transform="translate(918,10)">
    <rect x="0" y="0" width="282" height="130" rx="14" fill="url(#cardbg)" stroke="#22314d"/>
    <rect x="22" y="22" width="40" height="4" rx="2" fill="url(#acc)"/>
    <text x="22" y="70" fill="#ffffff" font-size="22" font-weight="800">Open To</text>
    <text x="22" y="98" fill="#8aa0bd" font-size="13">Werkstudent · Intern · Ausbildung</text>
  </g>
</svg>
